<svg xmlns="http://www.w3.org/2000/svg" enable-background="new 0 0 500 500" viewBox="0 0 500 500"><path fill="#787b7c" d="M368.074 295.793c-1.93 0-3.858-.596-5.498-1.786l-18.183-13.211-18.182 13.211c-3.278 2.38-7.718 2.38-10.995 0-3.279-2.383-4.65-6.604-3.398-10.458l6.945-21.374-18.184-13.211c-3.277-2.381-4.649-6.603-3.397-10.457 1.253-3.854 4.844-6.462 8.895-6.462h22.476l6.944-21.375c1.252-3.854 4.844-6.462 8.896-6.462 4.052 0 7.644 2.609 8.895 6.462l6.945 21.375h22.475c4.052 0 7.643 2.609 8.895 6.462 1.252 3.854-.119 8.076-3.397 10.457l-18.183 13.211 6.944 21.374c1.252 3.854-.119 8.075-3.398 10.458C371.932 295.197 370.002 295.793 368.074 295.793zM269.446 295.793c-1.93 0-3.857-.596-5.498-1.786l-18.182-13.211-18.182 13.211c-3.279 2.38-7.718 2.38-10.996 0-3.277-2.383-4.649-6.604-3.397-10.458l6.944-21.374-18.182-13.211c-3.279-2.381-4.65-6.603-3.398-10.457 1.252-3.854 4.844-6.462 8.895-6.462h22.477l6.944-21.375c1.252-3.854 4.843-6.462 8.896-6.462 4.052 0 7.643 2.609 8.895 6.462l6.945 21.375h22.475c4.053 0 7.645 2.609 8.896 6.462 1.252 3.854-.121 8.076-3.398 10.457l-18.182 13.211 6.944 21.374c1.252 3.854-.12 8.075-3.398 10.458C273.305 295.197 271.375 295.793 269.446 295.793zM72.19 295.793c-1.93 0-3.858-.596-5.498-1.786l-18.183-13.211-18.182 13.211c-3.278 2.38-7.718 2.38-10.995 0-3.278-2.383-4.65-6.604-3.398-10.458l6.945-21.374L4.696 248.964c-3.278-2.381-4.649-6.603-3.397-10.457 1.252-3.854 4.844-6.462 8.894-6.462h22.476l6.944-21.375c1.252-3.854 4.844-6.462 8.896-6.462 4.052 0 7.644 2.609 8.896 6.462l6.945 21.375h22.475c4.053 0 7.644 2.609 8.896 6.462 1.252 3.854-.12 8.076-3.397 10.457l-18.182 13.211 6.943 21.374c1.252 3.854-.119 8.075-3.397 10.458C76.048 295.197 74.118 295.793 72.19 295.793zM170.818 295.793c-1.929 0-3.858-.596-5.498-1.786l-18.183-13.211-18.182 13.211c-3.278 2.38-7.717 2.38-10.994 0-3.279-2.383-4.65-6.604-3.398-10.458l6.944-21.374-18.183-13.211c-3.278-2.381-4.65-6.603-3.398-10.457 1.254-3.854 4.845-6.462 8.896-6.462h22.476l6.945-21.375c1.252-3.854 4.843-6.462 8.895-6.462 4.053 0 7.644 2.609 8.896 6.462l6.945 21.375h22.476c4.052 0 7.643 2.609 8.895 6.462 1.252 3.854-.119 8.076-3.396 10.457l-18.184 13.211 6.945 21.374c1.252 3.854-.119 8.075-3.398 10.458C174.676 295.197 172.746 295.793 170.818 295.793zM466.703 295.793c-1.93 0-3.859-.596-5.498-1.786l-18.184-13.211-18.182 13.211c-3.278 2.38-7.717 2.38-10.994 0-3.279-2.383-4.65-6.604-3.398-10.458l6.944-21.374-18.183-13.211c-3.278-2.381-4.65-6.603-3.398-10.457 1.254-3.854 4.845-6.462 8.896-6.462h22.475l6.945-21.375c1.252-3.854 4.843-6.462 8.895-6.462 4.053 0 7.644 2.609 8.896 6.462l6.946 21.375h22.475c4.052 0 7.642 2.609 8.895 6.462 1.252 3.854-.119 8.076-3.397 10.457l-18.184 13.211 6.945 21.374c1.252 3.854-.119 8.075-3.398 10.458C470.561 295.197 468.631 295.793 466.703 295.793z" class="colorffd243 svgShape"/></svg>